<svg width="600" height="600" viewBox="0 0 600 600" fill="none" xmlns="http://www.w3.org/2000/svg">
<path fill-rule="evenodd" clip-rule="evenodd" d="M600 300C600 465.685 465.685 600 300 600C134.315 600 0 465.685 0 300C0 134.315 134.315 0 300 0C465.685 0 600 134.315 600 300ZM361.5 270.5L300 209L238.5 270.5L177 209L115.482 270.518L177 332.037L238.5 270.537L299.482 331.518L238.482 392.518L300 454.037L361.518 392.518L300.518 331.518L361.5 270.537L423 332.037L484.518 270.518L423 209L361.5 270.5Z" fill="#C4C4C4"/>
</svg>
